<svg width="20" height="22" viewBox="0 0 20 22" fill="none" xmlns="http://www.w3.org/2000/svg">
<path fill-rule="evenodd" clip-rule="evenodd" d="M8.42166 2.23483C9.40323 1.68951 10.5968 1.68951 11.5783 2.23483L16.5783 5.0126C17.6101 5.5858 18.25 6.67332 18.25 7.85361V14.1464C18.25 15.3267 17.6101 16.4142 16.5783 16.9874L11.5783 19.7652C10.5968 20.3105 9.40323 20.3105 8.42166 19.7652L3.42166 16.9874C2.3899 16.4142 1.75 15.3267 1.75 14.1464V7.85362C1.75 6.67332 2.3899 5.5858 3.42166 5.0126L8.42166 2.23483ZM12.3068 0.923591C10.8722 0.126588 9.1278 0.126586 7.6932 0.92359L2.6932 3.70137C1.18524 4.53912 0.25 6.12857 0.25 7.85362V14.1464C0.25 15.8714 1.18524 17.4609 2.6932 18.2986L7.69319 21.0764C9.1278 21.8734 10.8722 21.8734 12.3068 21.0764L17.3068 18.2986C18.8148 17.4609 19.75 15.8714 19.75 14.1464V7.85361C19.75 6.12857 18.8148 4.53912 17.3068 3.70137L12.3068 0.923591ZM6.70005 7.83C6.70005 8.1 6.72005 8.365 6.76005 8.625C6.79005 8.805 6.85505 8.985 6.95505 9.165C7.06505 9.335 7.19505 9.475 7.34505 9.585C7.49505 9.695 7.66005 9.755 7.84005 9.765C8.02005 9.765 8.20005 9.68 8.38005 9.51C8.49005 9.41 8.55505 9.305 8.57505 9.195C8.60505 9.085 8.61005 8.975 8.59005 8.865C8.58005 8.745 8.55505 8.625 8.51505 8.505C8.48505 8.375 8.46505 8.25 8.45505 8.13C8.44505 7.93 8.49005 7.75 8.59005 7.59C8.70005 7.43 8.84005 7.295 9.01005 7.185C9.18005 7.065 9.36505 6.98 9.56505 6.93C9.76505 6.87 9.95505 6.845 10.135 6.855C10.335 6.865 10.52 6.925 10.69 7.035C10.86 7.135 11.005 7.265 11.125 7.425C11.245 7.575 11.335 7.75 11.395 7.95C11.455 8.14 11.47 8.33 11.44 8.52C11.41 8.73 11.355 8.915 11.275 9.075C11.195 9.235 11.1 9.385 10.99 9.525C10.88 9.665 10.76 9.8 10.63 9.93C10.5 10.05 10.37 10.185 10.24 10.335C10.01 10.615 9.81505 10.915 9.65505 11.235C9.49505 11.545 9.38505 11.875 9.32505 12.225C9.30505 12.375 9.29005 12.55 9.28005 12.75C9.27005 12.94 9.28505 13.125 9.32505 13.305C9.37505 13.475 9.45005 13.625 9.55005 13.755C9.66005 13.875 9.82005 13.94 10.03 13.95C10.34 13.96 10.55 13.865 10.66 13.665C10.78 13.455 10.855 13.21 10.885 12.93C10.925 12.64 10.965 12.38 11.005 12.15C11.045 11.91 11.175 11.675 11.395 11.445C11.585 11.235 11.79 11.04 12.01 10.86C12.23 10.67 12.425 10.46 12.595 10.23L12.61 10.2C12.82 9.88 12.975 9.535 13.075 9.165C13.185 8.785 13.23 8.405 13.21 8.025C13.2 7.645 13.115 7.28 12.955 6.93C12.805 6.57 12.575 6.255 12.265 5.985C11.975 5.735 11.665 5.545 11.335 5.415C11.015 5.275 10.68 5.185 10.33 5.145C9.99005 5.105 9.64005 5.12 9.28005 5.19C8.93005 5.25 8.58505 5.36 8.24505 5.52C7.92505 5.67 7.64005 5.875 7.39005 6.135C7.14005 6.395 6.96005 6.695 6.85005 7.035C6.76005 7.295 6.71005 7.56 6.70005 7.83ZM10.75 16.89C10.97 16.66 11.08 16.4 11.08 16.11C11.08 15.81 10.97 15.55 10.75 15.33C10.54 15.1 10.295 14.985 10.015 14.985C9.74505 14.985 9.50505 15.1 9.29505 15.33C9.08505 15.54 8.98005 15.8 8.98005 16.11C8.98005 16.39 9.08505 16.65 9.29505 16.89C9.50505 17.11 9.74505 17.22 10.015 17.22C10.295 17.22 10.54 17.11 10.75 16.89Z" fill="#9D9EAB"/>
</svg>
