<svg width="18" height="20" viewBox="0 0 18 20" fill="none" xmlns="http://www.w3.org/2000/svg">
<path fill-rule="evenodd" clip-rule="evenodd" d="M7.05743 0.579203L2.05743 3.35698C0.787569 4.06246 0 5.40094 0 6.85361V13.1464C0 14.5991 0.787568 15.9375 2.05743 16.643L7.05743 19.4208C8.26552 20.0919 9.73448 20.092 10.9426 19.4208L15.9426 16.643C17.2124 15.9375 18 14.5991 18 13.1464V6.85361C18 5.40094 17.2124 4.06246 15.9426 3.35698L10.9426 0.579204C9.73448 -0.0919577 8.26552 -0.0919585 7.05743 0.579203ZM5.70005 6.83C5.70005 7.1 5.72005 7.365 5.76005 7.625C5.79005 7.805 5.85505 7.985 5.95505 8.165C6.06505 8.335 6.19505 8.475 6.34505 8.585C6.49505 8.695 6.66005 8.755 6.84005 8.765C7.02005 8.765 7.20005 8.68 7.38005 8.51C7.49005 8.41 7.55505 8.305 7.57505 8.195C7.60505 8.085 7.61005 7.975 7.59005 7.865C7.58005 7.745 7.55505 7.625 7.51505 7.505C7.48505 7.375 7.46505 7.25 7.45505 7.13C7.44505 6.93 7.49005 6.75 7.59005 6.59C7.70005 6.43 7.84005 6.295 8.01005 6.185C8.18005 6.065 8.36505 5.98 8.56505 5.93C8.76505 5.87 8.95505 5.845 9.13505 5.855C9.33505 5.865 9.52005 5.925 9.69005 6.035C9.86005 6.135 10.005 6.265 10.125 6.425C10.245 6.575 10.335 6.75 10.395 6.95C10.455 7.14 10.47 7.33 10.44 7.52C10.41 7.73 10.355 7.915 10.275 8.075C10.195 8.235 10.1 8.385 9.99005 8.525C9.88005 8.665 9.76005 8.8 9.63005 8.93C9.50005 9.05 9.37005 9.185 9.24005 9.335C9.01005 9.615 8.81505 9.915 8.65505 10.235C8.49505 10.545 8.38505 10.875 8.32505 11.225C8.30505 11.375 8.29005 11.55 8.28005 11.75C8.27005 11.94 8.28505 12.125 8.32505 12.305C8.37505 12.475 8.45005 12.625 8.55005 12.755C8.66005 12.875 8.82005 12.94 9.03005 12.95C9.34005 12.96 9.55005 12.865 9.66005 12.665C9.78005 12.455 9.85505 12.21 9.88505 11.93C9.92505 11.64 9.96505 11.38 10.005 11.15C10.045 10.91 10.175 10.675 10.395 10.445C10.585 10.235 10.79 10.04 11.01 9.86C11.23 9.67 11.425 9.46 11.595 9.23L11.61 9.2C11.82 8.88 11.975 8.535 12.075 8.165C12.185 7.785 12.23 7.405 12.21 7.025C12.2 6.645 12.115 6.28 11.955 5.93C11.805 5.57 11.575 5.255 11.265 4.985C10.975 4.735 10.665 4.545 10.335 4.415C10.015 4.275 9.68005 4.185 9.33005 4.145C8.99005 4.105 8.64005 4.12 8.28005 4.19C7.93005 4.25 7.58505 4.36 7.24505 4.52C6.92505 4.67 6.64005 4.875 6.39005 5.135C6.14005 5.395 5.96005 5.695 5.85005 6.035C5.76005 6.295 5.71005 6.56 5.70005 6.83ZM9.75005 15.89C9.97005 15.66 10.08 15.4 10.08 15.11C10.08 14.81 9.97005 14.55 9.75005 14.33C9.54005 14.1 9.29505 13.985 9.01505 13.985C8.74505 13.985 8.50505 14.1 8.29505 14.33C8.08505 14.54 7.98005 14.8 7.98005 15.11C7.98005 15.39 8.08505 15.65 8.29505 15.89C8.50505 16.11 8.74505 16.22 9.01505 16.22C9.29505 16.22 9.54005 16.11 9.75005 15.89Z" fill="#386AF1"/>
</svg>
