<svg width="21" height="20" viewBox="0 0 21 20" fill="none" xmlns="http://www.w3.org/2000/svg">
<path fill-rule="evenodd" clip-rule="evenodd" d="M10.5 18.3334C15.1023 18.3334 18.8333 14.6024 18.8333 10C18.8333 5.39765 15.1023 1.66669 10.5 1.66669C5.89759 1.66669 2.16663 5.39765 2.16663 10C2.16663 14.6024 5.89759 18.3334 10.5 18.3334ZM11.125 5.83335C11.125 5.48818 10.8451 5.20835 10.5 5.20835C10.1548 5.20835 9.87496 5.48818 9.87496 5.83335V10C9.87496 10.269 10.0471 10.5079 10.3023 10.5929L12.8023 11.4263C13.1298 11.5354 13.4837 11.3585 13.5929 11.031C13.702 10.7035 13.5251 10.3496 13.1976 10.2404L11.125 9.54955V5.83335Z" fill="#F2F2F2"/>
</svg>
