<svg width="200" height="184" viewBox="0 0 200 184" fill="none" xmlns="http://www.w3.org/2000/svg">
<ellipse cx="100" cy="165.5" rx="100" ry="8.5" fill="#EBF0FE"/>
<rect x="34.6866" y="16.6866" width="123.627" height="148.627" rx="7.31343" fill="white" stroke="#9BB4F8" stroke-width="1.37313"/>
<rect x="47" y="28" width="100" height="125" rx="6" fill="#EBF0FE"/>
<mask id="path-4-inside-1_680_4543" fill="white">
<path fill-rule="evenodd" clip-rule="evenodd" d="M85.6372 11.0345C85.6372 4.94031 90.5775 0 96.6716 0C102.766 0 107.706 4.94031 107.706 11.0345V11.508H129.926C133.651 11.508 136.672 14.5283 136.672 18.254C136.672 21.9797 133.651 25 129.926 25H63.4177C59.6919 25 56.6716 21.9797 56.6716 18.254C56.6716 14.5283 59.6919 11.508 63.4177 11.508H85.6372V11.0345ZM96.6717 13.8889C98.1953 13.8889 99.4303 12.6452 99.4303 11.1111C99.4303 9.57695 98.1953 8.3333 96.6717 8.3333C95.1482 8.3333 93.9131 9.57695 93.9131 11.1111C93.9131 12.6452 95.1482 13.8889 96.6717 13.8889Z"/>
</mask>
<path fill-rule="evenodd" clip-rule="evenodd" d="M85.6372 11.0345C85.6372 4.94031 90.5775 0 96.6716 0C102.766 0 107.706 4.94031 107.706 11.0345V11.508H129.926C133.651 11.508 136.672 14.5283 136.672 18.254C136.672 21.9797 133.651 25 129.926 25H63.4177C59.6919 25 56.6716 21.9797 56.6716 18.254C56.6716 14.5283 59.6919 11.508 63.4177 11.508H85.6372V11.0345ZM96.6717 13.8889C98.1953 13.8889 99.4303 12.6452 99.4303 11.1111C99.4303 9.57695 98.1953 8.3333 96.6717 8.3333C95.1482 8.3333 93.9131 9.57695 93.9131 11.1111C93.9131 12.6452 95.1482 13.8889 96.6717 13.8889Z" fill="white"/>
<path d="M107.706 11.508H106.333V12.8811H107.706V11.508ZM85.6372 11.508V12.8811H87.0103V11.508H85.6372ZM96.6716 -1.37313C89.8191 -1.37313 84.264 4.18195 84.264 11.0345H87.0103C87.0103 5.69867 91.3358 1.37313 96.6716 1.37313V-1.37313ZM109.079 11.0345C109.079 4.18195 103.524 -1.37313 96.6716 -1.37313V1.37313C102.007 1.37313 106.333 5.69867 106.333 11.0345H109.079ZM109.079 11.508V11.0345H106.333V11.508H109.079ZM129.926 10.1348H107.706V12.8811H129.926V10.1348ZM138.045 18.254C138.045 13.7699 134.41 10.1348 129.926 10.1348V12.8811C132.893 12.8811 135.299 15.2866 135.299 18.254H138.045ZM129.926 26.3732C134.41 26.3732 138.045 22.7381 138.045 18.254H135.299C135.299 21.2214 132.893 23.6269 129.926 23.6269V26.3732ZM63.4177 26.3732H129.926V23.6269H63.4177V26.3732ZM55.2985 18.254C55.2985 22.7381 58.9336 26.3732 63.4177 26.3732V23.6269C60.4503 23.6269 58.0448 21.2214 58.0448 18.254H55.2985ZM63.4177 10.1348C58.9336 10.1348 55.2985 13.7699 55.2985 18.254H58.0448C58.0448 15.2866 60.4503 12.8811 63.4177 12.8811V10.1348ZM85.6372 10.1348H63.4177V12.8811H85.6372V10.1348ZM84.264 11.0345V11.508H87.0103V11.0345H84.264ZM98.0572 11.1111C98.0572 11.8958 97.4279 12.5157 96.6717 12.5157V15.262C98.9626 15.262 100.803 13.3946 100.803 11.1111H98.0572ZM96.6717 9.70643C97.4279 9.70643 98.0572 10.3263 98.0572 11.1111H100.803C100.803 8.82756 98.9626 6.96016 96.6717 6.96016V9.70643ZM95.2862 11.1111C95.2862 10.3263 95.9155 9.70643 96.6717 9.70643V6.96016C94.3809 6.96016 92.54 8.82756 92.54 11.1111H95.2862ZM96.6717 12.5157C95.9155 12.5157 95.2862 11.8958 95.2862 11.1111H92.54C92.54 13.3946 94.3809 15.262 96.6717 15.262V12.5157Z" fill="#9BB4F8" mask="url(#path-4-inside-1_680_4543)"/>
<rect x="99.5522" y="48.7464" width="98.6269" height="48.6269" rx="4.80597" fill="white" stroke="#9BB4F8" stroke-width="1.37313"/>
<path d="M142.701 66.2388H167.701" stroke="#EBF0FE" stroke-width="2.74627"/>
<path d="M142.701 79.9702H182.701" stroke="#EBF0FE" stroke-width="2.74627"/>
<circle cx="122" cy="73" r="14.3134" fill="white" stroke="#EBF0FE" stroke-width="1.37313"/>
<path d="M122 67V79M128 73L116 73" stroke="#EBF0FE" stroke-width="1.5" stroke-linecap="round" stroke-linejoin="round"/>
</svg>
