<svg width="20" height="20" viewBox="0 0 20 20" fill="none" xmlns="http://www.w3.org/2000/svg">
<path d="M6.66667 5.83335H10M6.66667 9.16669H13.3333M6.66667 12.5H13.3333M4.16667 1.66669H15.8333C16.7538 1.66669 17.5 2.41288 17.5 3.33335V15.962C17.5 17.1163 16.3549 17.9211 15.2688 17.5301L13.9673 17.0616C13.5607 16.9152 13.113 16.9325 12.7189 17.1099L10.6839 18.0256C10.249 18.2213 9.75101 18.2213 9.31606 18.0256L7.28115 17.1099C6.88699 16.9325 6.43934 16.9152 6.03267 17.0616L4.7312 17.5301C3.6451 17.9211 2.5 17.1163 2.5 15.962V3.33335C2.5 2.41288 3.24619 1.66669 4.16667 1.66669Z" stroke="#7E7E7E" stroke-width="1.5" stroke-linecap="round"/>
</svg>
