<svg width="21" height="20" viewBox="0 0 21 20" fill="none" xmlns="http://www.w3.org/2000/svg">
<circle cx="10.5" cy="14.1667" r="0.833333" transform="rotate(-180 10.5 14.1667)" fill="#7E7E7E"/>
<path d="M10.5 11.6667L10.5 5.83333M3 7.60996V12.3901C3 13.6595 3.66025 14.8325 4.73205 15.4673L8.76795 17.8573C9.83975 18.492 11.1603 18.492 12.232 17.8573L16.2679 15.4673C17.3397 14.8325 18 13.6595 18 12.3901V7.60996C18 6.34052 17.3397 5.16751 16.2679 4.53279L12.232 2.14273C11.1603 1.50801 9.83975 1.50801 8.76795 2.14273L4.73205 4.53279C3.66025 5.16751 3 6.34052 3 7.60996Z" stroke="#7E7E7E" stroke-width="1.5" stroke-linecap="round"/>
</svg>
