<svg width="206" height="170" viewBox="0 0 206 170" fill="none" xmlns="http://www.w3.org/2000/svg">
<rect x="60.474" y="11.7552" width="104.219" height="15.1042" rx="7.55208" stroke="#D7E1FC" stroke-width="1.51042"/>
<rect x="60.474" y="57.0677" width="104.219" height="15.1042" rx="7.55208" stroke="#D7E1FC" stroke-width="1.51042"/>
<rect x="60.474" y="102.38" width="104.219" height="15.1042" rx="7.55208" stroke="#D7E1FC" stroke-width="1.51042"/>
<rect x="28.7552" y="102.38" width="15.1042" height="15.1042" rx="7.55208" fill="#EBEDF8" stroke="#EBEDF8" stroke-width="1.51042"/>
<rect x="28.7552" y="57.0677" width="15.1042" height="15.1042" rx="7.55208" fill="#EBEDF8" stroke="#EBEDF8" stroke-width="1.51042"/>
<rect x="28.7552" y="11.7552" width="15.1042" height="15.1042" rx="7.55208" fill="#EBEDF8" stroke="#EBEDF8" stroke-width="1.51042"/>
<ellipse cx="103" cy="154.5" rx="100" ry="4.5" fill="#EBF0FE"/>
<path d="M125.751 118.874C122.334 122.291 122.334 127.832 125.751 131.249C129.168 134.666 134.708 134.666 138.125 131.249L150.5 118.874L162.874 131.249C166.291 134.666 171.831 134.666 175.249 131.249C178.666 127.832 178.666 122.291 175.249 118.874L162.874 106.5L175.249 94.1257C178.666 90.7086 178.666 85.1684 175.249 81.7513C171.831 78.3342 166.291 78.3342 162.874 81.7513L150.5 94.1257L138.125 81.7513C134.708 78.3342 129.168 78.3342 125.751 81.7513C122.334 85.1684 122.334 90.7086 125.751 94.1257L138.125 106.5L125.751 118.874Z" fill="#9BB4F8"/>
</svg>
