<svg width="223" height="197" viewBox="0 0 223 197" fill="none" xmlns="http://www.w3.org/2000/svg">
<path d="M89.1646 106.25C89.1646 106.25 97.1852 113.333 110.553 113.333C123.92 113.333 131.941 106.25 131.941 106.25M146.2 70.8332C146.2 74.7453 143.008 77.9166 139.07 77.9166C135.133 77.9166 131.941 74.7453 131.941 70.8332C131.941 66.9212 135.133 63.7499 139.07 63.7499C143.008 63.7499 146.2 66.9212 146.2 70.8332ZM181.847 84.9999C181.847 124.12 149.927 155.833 110.553 155.833C71.1782 155.833 39.2588 124.12 39.2588 84.9999C39.2588 45.8797 71.1782 14.1666 110.553 14.1666C149.927 14.1666 181.847 45.8797 181.847 84.9999ZM89.1646 70.8332C89.1646 74.7453 85.9726 77.9166 82.0352 77.9166C78.0977 77.9166 74.9058 74.7453 74.9058 70.8332C74.9058 66.9212 78.0977 63.7499 82.0352 63.7499C85.9726 63.7499 89.1646 66.9212 89.1646 70.8332Z" stroke="#EBF0FE" stroke-width="2" stroke-linecap="round" stroke-linejoin="round"/>
<ellipse cx="81.6335" cy="70.6337" rx="7.22981" ry="7.1831" fill="#D7E1FC"/>
<ellipse cx="139.472" cy="70.6337" rx="7.22981" ry="7.1831" fill="#D7E1FC"/>
<ellipse cx="115" cy="172.5" rx="100" ry="4.5" fill="#EBF0FE"/>
</svg>
