<svg width="11" height="7" viewBox="0 0 11 7" fill="none" xmlns="http://www.w3.org/2000/svg">
<path d="M10.2185 0.804962C10.0403 0.62775 9.79911 0.528282 9.54774 0.528282C9.29638 0.528282 9.05523 0.62775 8.87696 0.804962L5.46118 4.17316L2.09298 0.804962C1.91471 0.62775 1.67356 0.528282 1.4222 0.528282C1.17083 0.528282 0.929683 0.62775 0.751414 0.804962C0.662234 0.893414 0.59145 0.998647 0.543145 1.11459C0.49484 1.23054 0.469971 1.3549 0.469971 1.48051C0.469971 1.60611 0.49484 1.73047 0.543145 1.84642C0.59145 1.96236 0.662234 2.0676 0.751414 2.15605L4.78564 6.19028C4.87409 6.27946 4.97933 6.35024 5.09527 6.39854C5.21122 6.44685 5.33558 6.47172 5.46118 6.47172C5.58679 6.47172 5.71115 6.44685 5.8271 6.39854C5.94304 6.35024 6.04827 6.27946 6.13673 6.19028L10.2185 2.15605C10.3077 2.0676 10.3785 1.96236 10.4268 1.84642C10.4751 1.73047 10.5 1.60611 10.5 1.48051C10.5 1.3549 10.4751 1.23054 10.4268 1.11459C10.3785 0.998647 10.3077 0.893414 10.2185 0.804962Z" fill="black"/>
</svg>
