<svg width="206" height="154" viewBox="0 0 206 154" fill="none" xmlns="http://www.w3.org/2000/svg">
<rect x="63.474" y="0.755208" width="104.219" height="15.1042" rx="7.55208" stroke="#EAEAEA" stroke-width="1.51042"/>
<rect x="63.474" y="46.0677" width="104.219" height="15.1042" rx="7.55208" stroke="#EAEAEA" stroke-width="1.51042"/>
<rect x="63.474" y="91.3802" width="104.219" height="15.1042" rx="7.55208" stroke="#EAEAEA" stroke-width="1.51042"/>
<rect x="31.7552" y="91.3802" width="15.1042" height="15.1042" rx="7.55208" fill="#EAEAEA" stroke="#EAEAEA" stroke-width="1.51042"/>
<rect x="31.7552" y="46.0677" width="15.1042" height="15.1042" rx="7.55208" fill="#EAEAEA" stroke="#EAEAEA" stroke-width="1.51042"/>
<rect x="31.7552" y="0.755208" width="15.1042" height="15.1042" rx="7.55208" fill="#EAEAEA" stroke="#EAEAEA" stroke-width="1.51042"/>
<circle cx="137.979" cy="94.8958" r="36.7448" fill="white" stroke="#D8D8D8" stroke-width="1.51042"/>
<mask id="path-8-inside-1_180_497" fill="white">
<path fill-rule="evenodd" clip-rule="evenodd" d="M138.631 73C136.625 73 135 74.6254 135 76.6305V97.0568C135 98.1533 135.486 99.1363 136.255 99.802C136.259 99.806 136.263 99.8101 136.267 99.8141L148.859 111.977C150.36 113.427 152.682 113.321 154.044 111.738C155.406 110.156 155.293 107.698 153.792 106.247L142.261 95.1094V76.6305C142.261 74.6254 140.636 73 138.631 73Z"/>
</mask>
<path fill-rule="evenodd" clip-rule="evenodd" d="M138.631 73C136.625 73 135 74.6254 135 76.6305V97.0568C135 98.1533 135.486 99.1363 136.255 99.802C136.259 99.806 136.263 99.8101 136.267 99.8141L148.859 111.977C150.36 113.427 152.682 113.321 154.044 111.738C155.406 110.156 155.293 107.698 153.792 106.247L142.261 95.1094V76.6305C142.261 74.6254 140.636 73 138.631 73Z" fill="white"/>
<path d="M136.255 99.802L137.309 98.7204L137.277 98.6894L137.244 98.6603L136.255 99.802ZM136.267 99.8141L135.218 100.9L135.218 100.901L136.267 99.8141ZM148.859 111.977L147.809 113.063L147.809 113.063L148.859 111.977ZM153.792 106.247L152.742 107.334V107.334L153.792 106.247ZM142.261 95.1094H140.751V95.7504L141.212 96.1957L142.261 95.1094ZM136.51 76.6305C136.51 75.4596 137.46 74.5104 138.631 74.5104V71.4896C135.791 71.4896 133.49 73.7913 133.49 76.6305H136.51ZM136.51 97.0568V76.6305H133.49V97.0568H136.51ZM137.244 98.6603C136.792 98.2693 136.51 97.6968 136.51 97.0568H133.49C133.49 98.6098 134.18 100.003 135.266 100.944L137.244 98.6603ZM137.317 98.7278C137.314 98.7252 137.311 98.7227 137.309 98.7204L135.2 100.884C135.206 100.889 135.212 100.895 135.218 100.9L137.317 98.7278ZM149.908 110.89L137.316 98.7278L135.218 100.901L147.809 113.063L149.908 110.89ZM152.9 110.753C152.104 111.677 150.785 111.738 149.908 110.89L147.809 113.063C149.935 115.117 153.26 114.964 155.189 112.724L152.9 110.753ZM152.742 107.334C153.668 108.228 153.739 109.777 152.9 110.753L155.189 112.724C157.073 110.535 156.919 107.168 154.841 105.161L152.742 107.334ZM141.212 96.1957L152.742 107.334L154.841 105.161L143.31 94.023L141.212 96.1957ZM140.751 76.6305V95.1094H143.771V76.6305H140.751ZM138.631 74.5104C139.801 74.5104 140.751 75.4596 140.751 76.6305H143.771C143.771 73.7913 141.47 71.4896 138.631 71.4896V74.5104Z" fill="#D8D8D8" mask="url(#path-8-inside-1_180_497)"/>
<ellipse cx="106" cy="143.5" rx="100" ry="4.5" fill="#FAFAFA"/>
</svg>
