<svg width="200" height="184" viewBox="0 0 200 184" fill="none" xmlns="http://www.w3.org/2000/svg">
<ellipse cx="100" cy="165.5" rx="100" ry="8.5" fill="#FAFAFA"/>
<rect x="35.0149" y="17.1642" width="123.627" height="148.627" rx="7.31343" fill="white" stroke="#D8D8D8" stroke-width="1.37313"/>
<rect x="47.6866" y="28.6866" width="98.6269" height="123.627" rx="7.31343" fill="white" stroke="#F1F1F3" stroke-width="1.37313"/>
<mask id="path-4-inside-1_180_484" fill="white">
<path fill-rule="evenodd" clip-rule="evenodd" d="M86.6372 11.0345C86.6372 4.94031 91.5775 0 97.6716 0C103.766 0 108.706 4.94031 108.706 11.0345V11.508H130.926C134.651 11.508 137.672 14.5283 137.672 18.254C137.672 21.9797 134.651 25 130.926 25H64.4177C60.6919 25 57.6716 21.9797 57.6716 18.254C57.6716 14.5283 60.6919 11.508 64.4177 11.508H86.6372V11.0345ZM97.6717 13.8889C99.1953 13.8889 100.43 12.6452 100.43 11.1111C100.43 9.57695 99.1953 8.3333 97.6717 8.3333C96.1482 8.3333 94.9131 9.57695 94.9131 11.1111C94.9131 12.6452 96.1482 13.8889 97.6717 13.8889Z"/>
</mask>
<path fill-rule="evenodd" clip-rule="evenodd" d="M86.6372 11.0345C86.6372 4.94031 91.5775 0 97.6716 0C103.766 0 108.706 4.94031 108.706 11.0345V11.508H130.926C134.651 11.508 137.672 14.5283 137.672 18.254C137.672 21.9797 134.651 25 130.926 25H64.4177C60.6919 25 57.6716 21.9797 57.6716 18.254C57.6716 14.5283 60.6919 11.508 64.4177 11.508H86.6372V11.0345ZM97.6717 13.8889C99.1953 13.8889 100.43 12.6452 100.43 11.1111C100.43 9.57695 99.1953 8.3333 97.6717 8.3333C96.1482 8.3333 94.9131 9.57695 94.9131 11.1111C94.9131 12.6452 96.1482 13.8889 97.6717 13.8889Z" fill="white"/>
<path d="M108.706 11.508H107.333V12.8811H108.706V11.508ZM86.6372 11.508V12.8811H88.0103V11.508H86.6372ZM97.6716 -1.37313C90.8191 -1.37313 85.264 4.18195 85.264 11.0345H88.0103C88.0103 5.69867 92.3358 1.37313 97.6716 1.37313V-1.37313ZM110.079 11.0345C110.079 4.18195 104.524 -1.37313 97.6716 -1.37313V1.37313C103.007 1.37313 107.333 5.69867 107.333 11.0345H110.079ZM110.079 11.508V11.0345H107.333V11.508H110.079ZM130.926 10.1348H108.706V12.8811H130.926V10.1348ZM139.045 18.254C139.045 13.7699 135.41 10.1348 130.926 10.1348V12.8811C133.893 12.8811 136.299 15.2866 136.299 18.254H139.045ZM130.926 26.3732C135.41 26.3732 139.045 22.7381 139.045 18.254H136.299C136.299 21.2214 133.893 23.6269 130.926 23.6269V26.3732ZM64.4177 26.3732H130.926V23.6269H64.4177V26.3732ZM56.2985 18.254C56.2985 22.7381 59.9336 26.3732 64.4177 26.3732V23.6269C61.4503 23.6269 59.0448 21.2214 59.0448 18.254H56.2985ZM64.4177 10.1348C59.9336 10.1348 56.2985 13.7699 56.2985 18.254H59.0448C59.0448 15.2866 61.4503 12.8811 64.4177 12.8811V10.1348ZM86.6372 10.1348H64.4177V12.8811H86.6372V10.1348ZM85.264 11.0345V11.508H88.0103V11.0345H85.264ZM99.0572 11.1111C99.0572 11.8958 98.4279 12.5157 97.6717 12.5157V15.262C99.9626 15.262 101.803 13.3946 101.803 11.1111H99.0572ZM97.6717 9.70643C98.4279 9.70643 99.0572 10.3263 99.0572 11.1111H101.803C101.803 8.82756 99.9626 6.96016 97.6717 6.96016V9.70643ZM96.2862 11.1111C96.2862 10.3263 96.9155 9.70643 97.6717 9.70643V6.96016C95.3809 6.96016 93.54 8.82756 93.54 11.1111H96.2862ZM97.6717 12.5157C96.9155 12.5157 96.2862 11.8958 96.2862 11.1111H93.54C93.54 13.3946 95.3809 15.262 97.6717 15.262V12.5157Z" fill="#F1F1F3" mask="url(#path-4-inside-1_180_484)"/>
<rect x="99.5523" y="48.7463" width="98.6269" height="48.6269" rx="4.80597" fill="white" stroke="#EAEAEA" stroke-width="1.37313"/>
<path d="M142.701 66.2389H167.701" stroke="#EAEAEA" stroke-width="2.74627"/>
<path d="M142.701 79.9702H182.701" stroke="#EAEAEA" stroke-width="2.74627"/>
<circle cx="122" cy="73" r="14.3134" fill="white" stroke="#EAEAEA" stroke-width="1.37313"/>
<path d="M122 67V79M128 73L116 73" stroke="#EAEAEA" stroke-width="1.5" stroke-linecap="round" stroke-linejoin="round"/>
</svg>
