<svg width="206" height="170" viewBox="0 0 206 170" fill="none" xmlns="http://www.w3.org/2000/svg">
<rect x="60.474" y="11.7552" width="104.219" height="15.1042" rx="7.55208" stroke="#D7E1FC" stroke-width="1.51042"/>
<rect x="60.474" y="57.0677" width="104.219" height="15.1042" rx="7.55208" stroke="#D7E1FC" stroke-width="1.51042"/>
<rect x="60.474" y="102.38" width="104.219" height="15.1042" rx="7.55208" stroke="#D7E1FC" stroke-width="1.51042"/>
<rect x="28.7552" y="102.38" width="15.1042" height="15.1042" rx="7.55208" fill="#EBF0FE" stroke="#EBF0FE" stroke-width="1.51042"/>
<rect x="28.7552" y="57.0677" width="15.1042" height="15.1042" rx="7.55208" fill="#EBF0FE" stroke="#EBF0FE" stroke-width="1.51042"/>
<rect x="28.7552" y="11.7552" width="15.1042" height="15.1042" rx="7.55208" fill="#EBF0FE" stroke="#EBF0FE" stroke-width="1.51042"/>
<circle cx="134.979" cy="105.896" r="36.7448" fill="white" stroke="#9BB4F8" stroke-width="1.51042"/>
<mask id="path-8-inside-1_894_4764" fill="white">
<path fill-rule="evenodd" clip-rule="evenodd" d="M135.631 84C133.625 84 132 85.6254 132 87.6305V108.057C132 109.153 132.486 110.136 133.255 110.802C133.259 110.806 133.263 110.81 133.267 110.814L145.859 122.977C147.36 124.427 149.682 124.321 151.044 122.738C152.406 121.156 152.293 118.698 150.792 117.247L139.261 106.109V87.6305C139.261 85.6254 137.636 84 135.631 84Z"/>
</mask>
<path fill-rule="evenodd" clip-rule="evenodd" d="M135.631 84C133.625 84 132 85.6254 132 87.6305V108.057C132 109.153 132.486 110.136 133.255 110.802C133.259 110.806 133.263 110.81 133.267 110.814L145.859 122.977C147.36 124.427 149.682 124.321 151.044 122.738C152.406 121.156 152.293 118.698 150.792 117.247L139.261 106.109V87.6305C139.261 85.6254 137.636 84 135.631 84Z" fill="white"/>
<path d="M133.255 110.802L134.309 109.72L134.277 109.689L134.244 109.66L133.255 110.802ZM133.267 110.814L132.218 111.9L132.218 111.901L133.267 110.814ZM145.859 122.977L144.809 124.063L144.809 124.063L145.859 122.977ZM150.792 117.247L149.742 118.334V118.334L150.792 117.247ZM139.261 106.109H137.751V106.75L138.212 107.196L139.261 106.109ZM133.51 87.6305C133.51 86.4596 134.46 85.5104 135.631 85.5104V82.4896C132.791 82.4896 130.49 84.7913 130.49 87.6305H133.51ZM133.51 108.057V87.6305H130.49V108.057H133.51ZM134.244 109.66C133.792 109.269 133.51 108.697 133.51 108.057H130.49C130.49 109.61 131.18 111.003 132.266 111.944L134.244 109.66ZM134.317 109.728C134.314 109.725 134.311 109.723 134.309 109.72L132.2 111.884C132.206 111.889 132.212 111.895 132.218 111.9L134.317 109.728ZM146.908 121.89L134.316 109.728L132.218 111.901L144.809 124.063L146.908 121.89ZM149.9 121.753C149.104 122.677 147.785 122.738 146.908 121.89L144.809 124.063C146.935 126.117 150.26 125.964 152.189 123.724L149.9 121.753ZM149.742 118.334C150.668 119.228 150.739 120.777 149.9 121.753L152.189 123.724C154.073 121.535 153.919 118.168 151.841 116.161L149.742 118.334ZM138.212 107.196L149.742 118.334L151.841 116.161L140.31 105.023L138.212 107.196ZM137.751 87.6305V106.109H140.771V87.6305H137.751ZM135.631 85.5104C136.801 85.5104 137.751 86.4596 137.751 87.6305H140.771C140.771 84.7913 138.47 82.4896 135.631 82.4896V85.5104Z" fill="#9BB4F8" mask="url(#path-8-inside-1_894_4764)"/>
<ellipse cx="103" cy="154.5" rx="100" ry="4.5" fill="#EBF0FE"/>
</svg>
