<svg width="8" height="5" viewBox="0 0 8 5" fill="none" xmlns="http://www.w3.org/2000/svg">
<path d="M7.8027 0.611663C7.67779 0.487495 7.50882 0.417801 7.3327 0.417801C7.15658 0.417801 6.98761 0.487495 6.8627 0.611663L4.46937 2.97166L2.10937 0.611663C1.98446 0.487495 1.81549 0.417801 1.63937 0.417801C1.46324 0.417801 1.29428 0.487495 1.16937 0.611663C1.10688 0.673638 1.05728 0.747372 1.02344 0.828611C0.989593 0.909851 0.972168 0.996988 0.972168 1.085C0.972168 1.173 0.989593 1.26014 1.02344 1.34138C1.05728 1.42262 1.10688 1.49635 1.16937 1.55833L3.99603 4.385C4.05801 4.44748 4.13174 4.49708 4.21298 4.53092C4.29422 4.56477 4.38136 4.58219 4.46937 4.58219C4.55737 4.58219 4.64451 4.56477 4.72575 4.53092C4.80699 4.49708 4.88072 4.44748 4.9427 4.385L7.8027 1.55833C7.86519 1.49635 7.91478 1.42262 7.94863 1.34138C7.98247 1.26014 7.9999 1.173 7.9999 1.085C7.9999 0.996988 7.98247 0.909851 7.94863 0.828611C7.91478 0.747372 7.86519 0.673638 7.8027 0.611663Z" fill="black"/>
</svg>
